<svg xmlns="http://www.w3.org/2000/svg" xmlns:xlink="http://www.w3.org/1999/xlink" width="500" zoomAndPan="magnify" viewBox="0 0 375 374.999991" height="500" preserveAspectRatio="xMidYMid meet" version="1.0"><defs><g/><clipPath id="e034ba5527"><path d="M 80 60 L 301 60 L 301 214.480469 L 80 214.480469 Z M 80 60 " clip-rule="nonzero"/></clipPath></defs><rect x="-37.5" width="450" fill="#ffffff" y="-37.499999" height="449.999989" fill-opacity="1"/><rect x="-37.5" width="450" fill="#ffffff" y="-37.499999" height="449.999989" fill-opacity="1"/><rect x="-37.5" width="450" fill="#ffffff" y="-37.499999" height="449.999989" fill-opacity="1"/><g clip-path="url(#e034ba5527)"><path fill="#061599" d="M 300.121094 174.0625 L 291.308594 96.132812 C 288.960938 75.992188 271.488281 60.257812 251.226562 60.257812 L 129.363281 60.257812 C 109.246094 60.257812 91.628906 75.992188 89.277344 96.132812 L 80.46875 174.0625 C 79.292969 184.5 82.523438 194.792969 89.277344 202.292969 C 96.03125 209.9375 105.574219 214.203125 116.148438 214.203125 C 133.621094 214.203125 149.769531 201.703125 154.320312 184.648438 C 155.203125 181.265625 153.148438 177.738281 149.769531 176.707031 C 146.394531 175.824219 142.871094 177.882812 141.84375 181.265625 C 138.757812 192.882812 127.894531 201.261719 116.148438 201.261719 C 109.394531 201.261719 103.226562 198.617188 98.96875 193.765625 C 94.5625 188.910156 92.65625 182.296875 93.390625 175.53125 L 102.199219 97.605469 C 103.8125 83.929688 115.707031 73.050781 129.507812 73.050781 L 251.375 73.050781 C 265.027344 73.050781 277.066406 83.785156 278.683594 97.605469 L 287.492188 175.53125 C 288.226562 182.441406 286.316406 188.910156 281.914062 193.765625 C 277.507812 198.617188 271.488281 201.261719 264.734375 201.261719 C 252.988281 201.261719 242.125 192.882812 239.039062 181.265625 C 238.160156 177.882812 234.636719 175.824219 231.113281 176.707031 C 227.734375 177.589844 225.679688 181.121094 226.558594 184.648438 C 231.113281 201.703125 247.261719 214.203125 264.734375 214.203125 C 275.160156 214.203125 284.703125 209.9375 291.605469 202.292969 C 298.210938 194.792969 301.292969 184.5 300.121094 174.0625 Z M 300.121094 174.0625 " fill-opacity="1" fill-rule="nonzero"/></g><path fill="#061599" d="M 149.183594 118.1875 C 144.191406 118.1875 140.078125 122.304688 140.078125 127.304688 C 140.078125 132.304688 144.191406 136.421875 149.183594 136.421875 C 154.175781 136.421875 158.285156 132.304688 158.285156 127.304688 C 158.140625 122.160156 154.175781 118.1875 149.183594 118.1875 Z M 149.183594 118.1875 " fill-opacity="1" fill-rule="nonzero"/><path fill="#061599" d="M 190.292969 118.1875 C 185.300781 118.1875 181.191406 122.304688 181.191406 127.304688 C 181.191406 132.304688 185.300781 136.421875 190.292969 136.421875 C 195.285156 136.421875 199.398438 132.304688 199.398438 127.304688 C 199.398438 122.160156 195.285156 118.1875 190.292969 118.1875 Z M 190.292969 118.1875 " fill-opacity="1" fill-rule="nonzero"/><path fill="#061599" d="M 240.507812 127.304688 C 240.507812 122.304688 236.398438 118.1875 231.40625 118.1875 C 226.414062 118.1875 222.300781 122.304688 222.300781 127.304688 C 222.300781 132.304688 226.414062 136.421875 231.40625 136.421875 C 236.398438 136.273438 240.507812 132.304688 240.507812 127.304688 Z M 240.507812 127.304688 " fill-opacity="1" fill-rule="nonzero"/><g fill="#000000" fill-opacity="1"><g transform="translate(30.118641, 271.174246)"><g><path d="M 53.019531 -24.945312 C 52.296875 -29.34375 48.742188 -32.957031 42.476562 -32.957031 C 39.585938 -32.957031 37.476562 -32.355469 35.609375 -31.089844 L 32.355469 -26.75 C 31.027344 -30.304688 27.714844 -32.957031 22.351562 -32.957031 C 19.402344 -32.957031 17.351562 -32.355469 15.425781 -31.089844 L 13.015625 -27.113281 L 13.015625 -32.113281 L 3.554688 -32.113281 L 3.554688 0 L 13.015625 0 L 13.015625 -16.6875 C 13.015625 -23.257812 14.761719 -26.449219 18.375 -26.449219 C 21.449219 -26.449219 23.074219 -24.640625 23.496094 -21.449219 C 23.679688 -19.824219 23.738281 -18.074219 23.738281 -16.570312 L 23.738281 0 L 33.136719 0 L 33.136719 -16.6875 C 33.136719 -23.257812 34.945312 -26.449219 38.558594 -26.449219 C 41.574219 -26.449219 43.261719 -24.640625 43.621094 -21.449219 C 43.800781 -19.824219 43.863281 -18.074219 43.863281 -16.570312 L 43.863281 0 L 53.320312 0 L 53.320312 -18.980469 C 53.320312 -21.570312 53.261719 -23.316406 53.019531 -24.945312 Z M 53.019531 -24.945312 "/></g></g></g><g fill="#000000" fill-opacity="1"><g transform="translate(86.631014, 271.174246)"><g><path d="M 22.292969 0 L 31.511719 0 C 31.027344 -3.554688 30.910156 -5.722656 30.910156 -8.132812 L 30.910156 -17.894531 C 30.910156 -19.761719 30.847656 -21.570312 30.726562 -23.074219 C 30.246094 -28.800781 26.8125 -32.957031 17.292969 -32.957031 C 9.460938 -32.957031 3.253906 -28.800781 3.074219 -21.449219 L 12.109375 -21.449219 C 12.351562 -24.640625 13.976562 -26.449219 16.929688 -26.449219 C 19.761719 -26.449219 21.207031 -24.882812 21.390625 -22.957031 C 21.507812 -21.871094 21.507812 -21.027344 21.507812 -20.183594 L 21.507812 -19.640625 L 19.460938 -19.640625 C 8.132812 -19.640625 1.929688 -15.542969 1.929688 -8.554688 C 1.929688 -2.46875 6.808594 0.84375 12.230469 0.84375 C 15.183594 0.84375 17.894531 0.179688 20.183594 -1.265625 L 21.628906 -4.699219 Z M 15.964844 -5.664062 C 13.375 -5.664062 11.628906 -6.929688 11.628906 -9.339844 C 11.628906 -13.074219 15.664062 -14.519531 21.507812 -14.039062 L 21.507812 -11.6875 C 21.507812 -7.710938 18.796875 -5.664062 15.964844 -5.664062 Z M 15.964844 -5.664062 "/></g></g></g><g fill="#000000" fill-opacity="1"><g transform="translate(121.152974, 271.174246)"><g><path d="M 22.652344 -16.207031 L 33.679688 -32.113281 L 22.835938 -32.113281 L 17.109375 -22.050781 L 11.328125 -32.113281 L 0.300781 -32.113281 L 11.144531 -16.269531 L -0.121094 0 L 10.722656 0 L 16.871094 -10.484375 L 22.773438 0 L 33.800781 0 Z M 22.652344 -16.207031 "/></g></g></g><g fill="#000000" fill-opacity="1"><g transform="translate(155.072466, 271.174246)"><g><path d="M 8.253906 -44.523438 C 5.242188 -44.523438 3.253906 -42.65625 3.253906 -39.765625 C 3.253906 -36.8125 5.242188 -34.945312 8.253906 -34.945312 C 11.265625 -34.945312 13.316406 -36.8125 13.316406 -39.765625 C 13.316406 -42.65625 11.265625 -44.523438 8.253906 -44.523438 Z M 13.015625 0 L 13.015625 -32.113281 L 3.554688 -32.113281 L 3.554688 0 Z M 13.015625 0 "/></g></g></g><g fill="#000000" fill-opacity="1"><g transform="translate(171.700847, 271.174246)"><g><path d="M 53.019531 -24.945312 C 52.296875 -29.34375 48.742188 -32.957031 42.476562 -32.957031 C 39.585938 -32.957031 37.476562 -32.355469 35.609375 -31.089844 L 32.355469 -26.75 C 31.027344 -30.304688 27.714844 -32.957031 22.351562 -32.957031 C 19.402344 -32.957031 17.351562 -32.355469 15.425781 -31.089844 L 13.015625 -27.113281 L 13.015625 -32.113281 L 3.554688 -32.113281 L 3.554688 0 L 13.015625 0 L 13.015625 -16.6875 C 13.015625 -23.257812 14.761719 -26.449219 18.375 -26.449219 C 21.449219 -26.449219 23.074219 -24.640625 23.496094 -21.449219 C 23.679688 -19.824219 23.738281 -18.074219 23.738281 -16.570312 L 23.738281 0 L 33.136719 0 L 33.136719 -16.6875 C 33.136719 -23.257812 34.945312 -26.449219 38.558594 -26.449219 C 41.574219 -26.449219 43.261719 -24.640625 43.621094 -21.449219 C 43.800781 -19.824219 43.863281 -18.074219 43.863281 -16.570312 L 43.863281 0 L 53.320312 0 L 53.320312 -18.980469 C 53.320312 -21.570312 53.261719 -23.316406 53.019531 -24.945312 Z M 53.019531 -24.945312 "/></g></g></g><g fill="#000000" fill-opacity="1"><g transform="translate(228.213221, 271.174246)"><g><path d="M 22.292969 0 L 31.511719 0 C 31.027344 -3.554688 30.910156 -5.722656 30.910156 -8.132812 L 30.910156 -17.894531 C 30.910156 -19.761719 30.847656 -21.570312 30.726562 -23.074219 C 30.246094 -28.800781 26.8125 -32.957031 17.292969 -32.957031 C 9.460938 -32.957031 3.253906 -28.800781 3.074219 -21.449219 L 12.109375 -21.449219 C 12.351562 -24.640625 13.976562 -26.449219 16.929688 -26.449219 C 19.761719 -26.449219 21.207031 -24.882812 21.390625 -22.957031 C 21.507812 -21.871094 21.507812 -21.027344 21.507812 -20.183594 L 21.507812 -19.640625 L 19.460938 -19.640625 C 8.132812 -19.640625 1.929688 -15.542969 1.929688 -8.554688 C 1.929688 -2.46875 6.808594 0.84375 12.230469 0.84375 C 15.183594 0.84375 17.894531 0.179688 20.183594 -1.265625 L 21.628906 -4.699219 Z M 15.964844 -5.664062 C 13.375 -5.664062 11.628906 -6.929688 11.628906 -9.339844 C 11.628906 -13.074219 15.664062 -14.519531 21.507812 -14.039062 L 21.507812 -11.6875 C 21.507812 -7.710938 18.796875 -5.664062 15.964844 -5.664062 Z M 15.964844 -5.664062 "/></g></g></g><g fill="#000000" fill-opacity="1"><g transform="translate(262.73518, 271.174246)"><g><path d="M 12.773438 -44.285156 L 3.3125 -44.285156 L 3.3125 -10.785156 C 3.3125 -8.554688 3.3125 -6.988281 3.433594 -5.421875 C 3.675781 -1.203125 6.328125 0.542969 10.84375 0.542969 C 12.953125 0.542969 14.699219 0.421875 16.507812 0.242188 L 16.507812 -6.207031 C 13.675781 -6.085938 13.015625 -6.566406 12.832031 -8.011719 C 12.773438 -8.855469 12.773438 -9.578125 12.773438 -10.964844 Z M 12.773438 -44.285156 "/></g></g></g><g fill="#000000" fill-opacity="1"><g transform="translate(280.267273, 271.174246)"><g><path d="M 8.253906 -44.523438 C 5.242188 -44.523438 3.253906 -42.65625 3.253906 -39.765625 C 3.253906 -36.8125 5.242188 -34.945312 8.253906 -34.945312 C 11.265625 -34.945312 13.316406 -36.8125 13.316406 -39.765625 C 13.316406 -42.65625 11.265625 -44.523438 8.253906 -44.523438 Z M 13.015625 0 L 13.015625 -32.113281 L 3.554688 -32.113281 L 3.554688 0 Z M 13.015625 0 "/></g></g></g><g fill="#000000" fill-opacity="1"><g transform="translate(296.895654, 271.174246)"><g><path d="M 15.847656 -32.957031 C 7.773438 -32.957031 2.46875 -29.101562 2.46875 -22.835938 C 2.46875 -17.351562 6.386719 -14.640625 12.410156 -13.132812 C 18.074219 -11.808594 20.125 -10.542969 20.125 -8.253906 C 20.125 -6.207031 18.316406 -5.242188 16.027344 -5.242188 C 13.375 -5.242188 11.207031 -6.867188 10.542969 -9.882812 L 1.203125 -9.882812 C 2.046875 -2.652344 7.773438 0.84375 15.964844 0.84375 C 23.496094 0.84375 29.582031 -2.289062 29.582031 -8.976562 C 29.582031 -15.003906 25.605469 -17.59375 19.402344 -19.160156 C 13.675781 -20.605469 11.929688 -21.8125 11.929688 -23.980469 C 11.929688 -25.667969 13.195312 -26.933594 15.242188 -26.933594 C 17.59375 -26.933594 18.980469 -25.425781 19.519531 -22.773438 L 28.859375 -22.773438 C 28.078125 -28.617188 23.617188 -32.957031 15.847656 -32.957031 Z M 15.847656 -32.957031 "/></g></g></g><g fill="#000000" fill-opacity="1"><g transform="translate(327.682261, 271.174246)"><g><path d="M 14.882812 -25.847656 L 21.691406 -25.847656 L 21.691406 -31.871094 L 14.882812 -31.871094 L 14.882812 -39.945312 L 5.421875 -39.945312 L 5.421875 -31.871094 L 0.542969 -31.871094 L 0.542969 -25.847656 L 5.421875 -25.847656 L 5.421875 -11.085938 C 5.421875 -9.277344 5.421875 -7.832031 5.542969 -6.207031 C 5.90625 -1.507812 8.195312 0.785156 15.242188 0.785156 C 17.292969 0.785156 19.160156 0.601562 21.085938 0.300781 L 21.085938 -5.722656 C 16.269531 -5.421875 15.183594 -6.144531 14.941406 -9.339844 C 14.882812 -10.183594 14.882812 -11.265625 14.882812 -12.351562 Z M 14.882812 -25.847656 "/></g></g></g><g fill="#061599" fill-opacity="1"><g transform="translate(24.962964, 301.625105)"><g><path d="M 0.765625 -3.90625 L 0.765625 -5.25 L 4.96875 -5.25 L 4.96875 -3.90625 Z M 0.765625 -3.90625 "/></g></g></g><g fill="#061599" fill-opacity="1"><g transform="translate(32.00446, 301.625105)"><g/></g></g><g fill="#061599" fill-opacity="1"><g transform="translate(38.096047, 301.625105)"><g><path d="M 11.484375 0 L 11.484375 -7.90625 C 11.484375 -8.78125 11.507812 -9.617188 11.5625 -10.421875 C 11.289062 -9.421875 11.046875 -8.640625 10.828125 -8.078125 L 7.765625 0 L 6.640625 0 L 3.53125 -8.078125 L 3.0625 -9.5 L 2.78125 -10.421875 L 2.8125 -9.484375 L 2.84375 -7.90625 L 2.84375 0 L 1.40625 0 L 1.40625 -11.84375 L 3.515625 -11.84375 L 6.671875 -3.625 C 6.785156 -3.300781 6.894531 -2.945312 7 -2.5625 C 7.101562 -2.1875 7.171875 -1.914062 7.203125 -1.75 C 7.242188 -1.96875 7.335938 -2.304688 7.484375 -2.765625 C 7.628906 -3.222656 7.726562 -3.507812 7.78125 -3.625 L 10.875 -11.84375 L 12.9375 -11.84375 L 12.9375 0 Z M 11.484375 0 "/></g></g></g><g fill="#061599" fill-opacity="1"><g transform="translate(53.745563, 301.625105)"><g><path d="M 9.8125 0 L 8.453125 -3.46875 L 3.0625 -3.46875 L 1.703125 0 L 0.03125 0 L 4.875 -11.84375 L 6.6875 -11.84375 L 11.453125 0 Z M 5.765625 -10.640625 L 5.6875 -10.40625 C 5.539062 -9.9375 5.332031 -9.335938 5.0625 -8.609375 L 3.546875 -4.71875 L 7.984375 -4.71875 L 6.453125 -8.625 C 6.296875 -9.007812 6.140625 -9.445312 5.984375 -9.9375 Z M 5.765625 -10.640625 "/></g></g></g><g fill="#061599" fill-opacity="1"><g transform="translate(66.536946, 301.625105)"><g><path d="M 9.34375 0 L 5.796875 -5.171875 L 2.15625 0 L 0.390625 0 L 4.890625 -6.15625 L 0.734375 -11.84375 L 2.5 -11.84375 L 5.796875 -7.203125 L 9 -11.84375 L 10.78125 -11.84375 L 6.71875 -6.21875 L 11.125 0 Z M 9.34375 0 "/></g></g></g><g fill="#061599" fill-opacity="1"><g transform="translate(79.328329, 301.625105)"><g><path d="M 1.59375 0 L 1.59375 -11.84375 L 3.1875 -11.84375 L 3.1875 0 Z M 1.59375 0 "/></g></g></g><g fill="#061599" fill-opacity="1"><g transform="translate(85.419914, 301.625105)"><g><path d="M 11.484375 0 L 11.484375 -7.90625 C 11.484375 -8.78125 11.507812 -9.617188 11.5625 -10.421875 C 11.289062 -9.421875 11.046875 -8.640625 10.828125 -8.078125 L 7.765625 0 L 6.640625 0 L 3.53125 -8.078125 L 3.0625 -9.5 L 2.78125 -10.421875 L 2.8125 -9.484375 L 2.84375 -7.90625 L 2.84375 0 L 1.40625 0 L 1.40625 -11.84375 L 3.515625 -11.84375 L 6.671875 -3.625 C 6.785156 -3.300781 6.894531 -2.945312 7 -2.5625 C 7.101562 -2.1875 7.171875 -1.914062 7.203125 -1.75 C 7.242188 -1.96875 7.335938 -2.304688 7.484375 -2.765625 C 7.628906 -3.222656 7.726562 -3.507812 7.78125 -3.625 L 10.875 -11.84375 L 12.9375 -11.84375 L 12.9375 0 Z M 11.484375 0 "/></g></g></g><g fill="#061599" fill-opacity="1"><g transform="translate(101.069429, 301.625105)"><g><path d="M 1.59375 0 L 1.59375 -11.84375 L 3.1875 -11.84375 L 3.1875 0 Z M 1.59375 0 "/></g></g></g><g fill="#061599" fill-opacity="1"><g transform="translate(107.161014, 301.625105)"><g><path d="M 10.6875 -3.265625 C 10.6875 -2.171875 10.257812 -1.320312 9.40625 -0.71875 C 8.550781 -0.125 7.347656 0.171875 5.796875 0.171875 C 2.910156 0.171875 1.238281 -0.832031 0.78125 -2.84375 L 2.34375 -3.15625 C 2.519531 -2.4375 2.898438 -1.910156 3.484375 -1.578125 C 4.066406 -1.242188 4.859375 -1.078125 5.859375 -1.078125 C 6.898438 -1.078125 7.703125 -1.253906 8.265625 -1.609375 C 8.828125 -1.972656 9.109375 -2.5 9.109375 -3.1875 C 9.109375 -3.570312 9.019531 -3.882812 8.84375 -4.125 C 8.664062 -4.363281 8.414062 -4.5625 8.09375 -4.71875 C 7.78125 -4.875 7.398438 -5.003906 6.953125 -5.109375 C 6.503906 -5.222656 6.015625 -5.34375 5.484375 -5.46875 C 4.546875 -5.675781 3.832031 -5.878906 3.34375 -6.078125 C 2.863281 -6.285156 2.484375 -6.515625 2.203125 -6.765625 C 1.921875 -7.023438 1.707031 -7.328125 1.5625 -7.671875 C 1.414062 -8.015625 1.34375 -8.410156 1.34375 -8.859375 C 1.34375 -9.867188 1.726562 -10.644531 2.5 -11.1875 C 3.28125 -11.738281 4.390625 -12.015625 5.828125 -12.015625 C 7.179688 -12.015625 8.210938 -11.804688 8.921875 -11.390625 C 9.628906 -10.984375 10.128906 -10.285156 10.421875 -9.296875 L 8.84375 -9.015625 C 8.664062 -9.648438 8.332031 -10.109375 7.84375 -10.390625 C 7.351562 -10.671875 6.675781 -10.8125 5.8125 -10.8125 C 4.863281 -10.8125 4.140625 -10.65625 3.640625 -10.34375 C 3.148438 -10.03125 2.90625 -9.5625 2.90625 -8.9375 C 2.90625 -8.570312 3 -8.269531 3.1875 -8.03125 C 3.382812 -7.789062 3.664062 -7.585938 4.03125 -7.421875 C 4.394531 -7.265625 5.117188 -7.0625 6.203125 -6.8125 C 6.566406 -6.726562 6.925781 -6.644531 7.28125 -6.5625 C 7.644531 -6.476562 7.992188 -6.375 8.328125 -6.25 C 8.660156 -6.125 8.96875 -5.976562 9.25 -5.8125 C 9.539062 -5.65625 9.789062 -5.457031 10 -5.21875 C 10.21875 -4.988281 10.382812 -4.710938 10.5 -4.390625 C 10.625 -4.078125 10.6875 -3.703125 10.6875 -3.265625 Z M 10.6875 -3.265625 "/></g></g></g><g fill="#061599" fill-opacity="1"><g transform="translate(119.952397, 301.625105)"><g><path d="M 1.40625 0 L 1.40625 -11.84375 L 10.40625 -11.84375 L 10.40625 -10.53125 L 3.015625 -10.53125 L 3.015625 -6.734375 L 9.890625 -6.734375 L 9.890625 -5.4375 L 3.015625 -5.4375 L 3.015625 -1.3125 L 10.75 -1.3125 L 10.75 0 Z M 1.40625 0 "/></g></g></g><g fill="#061599" fill-opacity="1"><g transform="translate(132.743785, 301.625105)"><g/></g></g><g fill="#061599" fill-opacity="1"><g transform="translate(138.835376, 301.625105)"><g><path d="M 6.53125 -4.90625 L 6.53125 0 L 4.9375 0 L 4.9375 -4.90625 L 0.375 -11.84375 L 2.140625 -11.84375 L 5.75 -6.203125 L 9.34375 -11.84375 L 11.109375 -11.84375 Z M 6.53125 -4.90625 "/></g></g></g><g fill="#061599" fill-opacity="1"><g transform="translate(151.626764, 301.625105)"><g><path d="M 12.5625 -5.984375 C 12.5625 -4.742188 12.328125 -3.65625 11.859375 -2.71875 C 11.390625 -1.789062 10.707031 -1.078125 9.8125 -0.578125 C 8.925781 -0.078125 7.882812 0.171875 6.6875 0.171875 C 5.46875 0.171875 4.414062 -0.0703125 3.53125 -0.5625 C 2.65625 -1.0625 1.984375 -1.773438 1.515625 -2.703125 C 1.046875 -3.640625 0.8125 -4.734375 0.8125 -5.984375 C 0.8125 -7.867188 1.328125 -9.34375 2.359375 -10.40625 C 3.398438 -11.476562 4.847656 -12.015625 6.703125 -12.015625 C 7.910156 -12.015625 8.957031 -11.773438 9.84375 -11.296875 C 10.726562 -10.816406 11.398438 -10.117188 11.859375 -9.203125 C 12.328125 -8.296875 12.5625 -7.222656 12.5625 -5.984375 Z M 10.9375 -5.984375 C 10.9375 -7.453125 10.566406 -8.609375 9.828125 -9.453125 C 9.085938 -10.296875 8.046875 -10.71875 6.703125 -10.71875 C 5.347656 -10.71875 4.300781 -10.300781 3.5625 -9.46875 C 2.820312 -8.632812 2.453125 -7.472656 2.453125 -5.984375 C 2.453125 -4.492188 2.820312 -3.3125 3.5625 -2.4375 C 4.3125 -1.570312 5.351562 -1.140625 6.6875 -1.140625 C 8.050781 -1.140625 9.097656 -1.5625 9.828125 -2.40625 C 10.566406 -3.25 10.9375 -4.441406 10.9375 -5.984375 Z M 10.9375 -5.984375 "/></g></g></g><g fill="#061599" fill-opacity="1"><g transform="translate(166.326376, 301.625105)"><g><path d="M 6.140625 0.171875 C 5.171875 0.171875 4.320312 -0.00390625 3.59375 -0.359375 C 2.875 -0.710938 2.316406 -1.222656 1.921875 -1.890625 C 1.523438 -2.566406 1.328125 -3.375 1.328125 -4.3125 L 1.328125 -11.84375 L 2.9375 -11.84375 L 2.9375 -4.4375 C 2.9375 -3.351562 3.207031 -2.53125 3.75 -1.96875 C 4.300781 -1.414062 5.097656 -1.140625 6.140625 -1.140625 C 7.203125 -1.140625 8.03125 -1.425781 8.625 -2 C 9.21875 -2.582031 9.515625 -3.429688 9.515625 -4.546875 L 9.515625 -11.84375 L 11.109375 -11.84375 L 11.109375 -4.453125 C 11.109375 -3.492188 10.90625 -2.664062 10.5 -1.96875 C 10.09375 -1.28125 9.515625 -0.75 8.765625 -0.375 C 8.023438 -0.0078125 7.148438 0.171875 6.140625 0.171875 Z M 6.140625 0.171875 "/></g></g></g><g fill="#061599" fill-opacity="1"><g transform="translate(180.067672, 301.625105)"><g><path d="M 9.78125 0 L 6.703125 -4.921875 L 3.015625 -4.921875 L 3.015625 0 L 1.40625 0 L 1.40625 -11.84375 L 6.984375 -11.84375 C 8.316406 -11.84375 9.347656 -11.546875 10.078125 -10.953125 C 10.804688 -10.359375 11.171875 -9.523438 11.171875 -8.453125 C 11.171875 -7.578125 10.910156 -6.835938 10.390625 -6.234375 C 9.878906 -5.640625 9.171875 -5.265625 8.265625 -5.109375 L 11.640625 0 Z M 9.546875 -8.4375 C 9.546875 -9.125 9.3125 -9.648438 8.84375 -10.015625 C 8.375 -10.378906 7.703125 -10.5625 6.828125 -10.5625 L 3.015625 -10.5625 L 3.015625 -6.1875 L 6.890625 -6.1875 C 7.734375 -6.1875 8.382812 -6.382812 8.84375 -6.78125 C 9.3125 -7.175781 9.546875 -7.726562 9.546875 -8.4375 Z M 9.546875 -8.4375 "/></g></g></g><g fill="#061599" fill-opacity="1"><g transform="translate(193.808969, 301.625105)"><g/></g></g><g fill="#061599" fill-opacity="1"><g transform="translate(199.90056, 301.625105)"><g><path d="M 10.578125 -8.28125 C 10.578125 -7.15625 10.207031 -6.257812 9.46875 -5.59375 C 8.738281 -4.9375 7.75 -4.609375 6.5 -4.609375 L 3.015625 -4.609375 L 3.015625 0 L 1.40625 0 L 1.40625 -11.84375 L 6.390625 -11.84375 C 7.722656 -11.84375 8.753906 -11.53125 9.484375 -10.90625 C 10.210938 -10.289062 10.578125 -9.414062 10.578125 -8.28125 Z M 8.96875 -8.265625 C 8.96875 -9.796875 8.046875 -10.5625 6.203125 -10.5625 L 3.015625 -10.5625 L 3.015625 -5.890625 L 6.265625 -5.890625 C 8.066406 -5.890625 8.96875 -6.679688 8.96875 -8.265625 Z M 8.96875 -8.265625 "/></g></g></g><g fill="#061599" fill-opacity="1"><g transform="translate(212.691948, 301.625105)"><g><path d="M 9.78125 0 L 6.703125 -4.921875 L 3.015625 -4.921875 L 3.015625 0 L 1.40625 0 L 1.40625 -11.84375 L 6.984375 -11.84375 C 8.316406 -11.84375 9.347656 -11.546875 10.078125 -10.953125 C 10.804688 -10.359375 11.171875 -9.523438 11.171875 -8.453125 C 11.171875 -7.578125 10.910156 -6.835938 10.390625 -6.234375 C 9.878906 -5.640625 9.171875 -5.265625 8.265625 -5.109375 L 11.640625 0 Z M 9.546875 -8.4375 C 9.546875 -9.125 9.3125 -9.648438 8.84375 -10.015625 C 8.375 -10.378906 7.703125 -10.5625 6.828125 -10.5625 L 3.015625 -10.5625 L 3.015625 -6.1875 L 6.890625 -6.1875 C 7.734375 -6.1875 8.382812 -6.382812 8.84375 -6.78125 C 9.3125 -7.175781 9.546875 -7.726562 9.546875 -8.4375 Z M 9.546875 -8.4375 "/></g></g></g><g fill="#061599" fill-opacity="1"><g transform="translate(226.433245, 301.625105)"><g><path d="M 12.5625 -5.984375 C 12.5625 -4.742188 12.328125 -3.65625 11.859375 -2.71875 C 11.390625 -1.789062 10.707031 -1.078125 9.8125 -0.578125 C 8.925781 -0.078125 7.882812 0.171875 6.6875 0.171875 C 5.46875 0.171875 4.414062 -0.0703125 3.53125 -0.5625 C 2.65625 -1.0625 1.984375 -1.773438 1.515625 -2.703125 C 1.046875 -3.640625 0.8125 -4.734375 0.8125 -5.984375 C 0.8125 -7.867188 1.328125 -9.34375 2.359375 -10.40625 C 3.398438 -11.476562 4.847656 -12.015625 6.703125 -12.015625 C 7.910156 -12.015625 8.957031 -11.773438 9.84375 -11.296875 C 10.726562 -10.816406 11.398438 -10.117188 11.859375 -9.203125 C 12.328125 -8.296875 12.5625 -7.222656 12.5625 -5.984375 Z M 10.9375 -5.984375 C 10.9375 -7.453125 10.566406 -8.609375 9.828125 -9.453125 C 9.085938 -10.296875 8.046875 -10.71875 6.703125 -10.71875 C 5.347656 -10.71875 4.300781 -10.300781 3.5625 -9.46875 C 2.820312 -8.632812 2.453125 -7.472656 2.453125 -5.984375 C 2.453125 -4.492188 2.820312 -3.3125 3.5625 -2.4375 C 4.3125 -1.570312 5.351562 -1.140625 6.6875 -1.140625 C 8.050781 -1.140625 9.097656 -1.5625 9.828125 -2.40625 C 10.566406 -3.25 10.9375 -4.441406 10.9375 -5.984375 Z M 10.9375 -5.984375 "/></g></g></g><g fill="#061599" fill-opacity="1"><g transform="translate(241.132857, 301.625105)"><g><path d="M 11.609375 -6.046875 C 11.609375 -4.828125 11.367188 -3.757812 10.890625 -2.84375 C 10.421875 -1.925781 9.75 -1.222656 8.875 -0.734375 C 8 -0.242188 6.988281 0 5.84375 0 L 1.40625 0 L 1.40625 -11.84375 L 5.328125 -11.84375 C 7.335938 -11.84375 8.882812 -11.335938 9.96875 -10.328125 C 11.0625 -9.328125 11.609375 -7.898438 11.609375 -6.046875 Z M 10 -6.046875 C 10 -7.515625 9.59375 -8.632812 8.78125 -9.40625 C 7.976562 -10.175781 6.816406 -10.5625 5.296875 -10.5625 L 3.015625 -10.5625 L 3.015625 -1.28125 L 5.65625 -1.28125 C 6.53125 -1.28125 7.296875 -1.472656 7.953125 -1.859375 C 8.609375 -2.242188 9.113281 -2.789062 9.46875 -3.5 C 9.820312 -4.21875 10 -5.066406 10 -6.046875 Z M 10 -6.046875 "/></g></g></g><g fill="#061599" fill-opacity="1"><g transform="translate(254.874154, 301.625105)"><g><path d="M 6.140625 0.171875 C 5.171875 0.171875 4.320312 -0.00390625 3.59375 -0.359375 C 2.875 -0.710938 2.316406 -1.222656 1.921875 -1.890625 C 1.523438 -2.566406 1.328125 -3.375 1.328125 -4.3125 L 1.328125 -11.84375 L 2.9375 -11.84375 L 2.9375 -4.4375 C 2.9375 -3.351562 3.207031 -2.53125 3.75 -1.96875 C 4.300781 -1.414062 5.097656 -1.140625 6.140625 -1.140625 C 7.203125 -1.140625 8.03125 -1.425781 8.625 -2 C 9.21875 -2.582031 9.515625 -3.429688 9.515625 -4.546875 L 9.515625 -11.84375 L 11.109375 -11.84375 L 11.109375 -4.453125 C 11.109375 -3.492188 10.90625 -2.664062 10.5 -1.96875 C 10.09375 -1.28125 9.515625 -0.75 8.765625 -0.375 C 8.023438 -0.0078125 7.148438 0.171875 6.140625 0.171875 Z M 6.140625 0.171875 "/></g></g></g><g fill="#061599" fill-opacity="1"><g transform="translate(268.61545, 301.625105)"><g><path d="M 6.65625 -10.71875 C 5.34375 -10.71875 4.320312 -10.296875 3.59375 -9.453125 C 2.863281 -8.609375 2.5 -7.453125 2.5 -5.984375 C 2.5 -4.523438 2.878906 -3.351562 3.640625 -2.46875 C 4.398438 -1.59375 5.425781 -1.15625 6.71875 -1.15625 C 8.382812 -1.15625 9.632812 -1.972656 10.46875 -3.609375 L 11.78125 -2.953125 C 11.289062 -1.929688 10.601562 -1.15625 9.71875 -0.625 C 8.84375 -0.09375 7.820312 0.171875 6.65625 0.171875 C 5.457031 0.171875 4.421875 -0.0703125 3.546875 -0.5625 C 2.679688 -1.0625 2.019531 -1.773438 1.5625 -2.703125 C 1.101562 -3.628906 0.875 -4.722656 0.875 -5.984375 C 0.875 -7.867188 1.382812 -9.34375 2.40625 -10.40625 C 3.425781 -11.476562 4.835938 -12.015625 6.640625 -12.015625 C 7.898438 -12.015625 8.953125 -11.769531 9.796875 -11.28125 C 10.648438 -10.789062 11.273438 -10.0625 11.671875 -9.09375 L 10.140625 -8.578125 C 9.867188 -9.273438 9.425781 -9.804688 8.8125 -10.171875 C 8.207031 -10.535156 7.488281 -10.71875 6.65625 -10.71875 Z M 6.65625 -10.71875 "/></g></g></g><g fill="#061599" fill-opacity="1"><g transform="translate(282.356747, 301.625105)"><g><path d="M 6.046875 -10.53125 L 6.046875 0 L 4.453125 0 L 4.453125 -10.53125 L 0.390625 -10.53125 L 0.390625 -11.84375 L 10.125 -11.84375 L 10.125 -10.53125 Z M 6.046875 -10.53125 "/></g></g></g><g fill="#061599" fill-opacity="1"><g transform="translate(294.181414, 301.625105)"><g><path d="M 1.59375 0 L 1.59375 -11.84375 L 3.1875 -11.84375 L 3.1875 0 Z M 1.59375 0 "/></g></g></g><g fill="#061599" fill-opacity="1"><g transform="translate(300.273005, 301.625105)"><g><path d="M 6.578125 0 L 4.90625 0 L 0.078125 -11.84375 L 1.765625 -11.84375 L 5.046875 -3.5 L 5.75 -1.40625 L 6.453125 -3.5 L 9.71875 -11.84375 L 11.40625 -11.84375 Z M 6.578125 0 "/></g></g></g><g fill="#061599" fill-opacity="1"><g transform="translate(313.064393, 301.625105)"><g><path d="M 1.59375 0 L 1.59375 -11.84375 L 3.1875 -11.84375 L 3.1875 0 Z M 1.59375 0 "/></g></g></g><g fill="#061599" fill-opacity="1"><g transform="translate(319.155984, 301.625105)"><g><path d="M 6.046875 -10.53125 L 6.046875 0 L 4.453125 0 L 4.453125 -10.53125 L 0.390625 -10.53125 L 0.390625 -11.84375 L 10.125 -11.84375 L 10.125 -10.53125 Z M 6.046875 -10.53125 "/></g></g></g><g fill="#061599" fill-opacity="1"><g transform="translate(330.980651, 301.625105)"><g><path d="M 6.53125 -4.90625 L 6.53125 0 L 4.9375 0 L 4.9375 -4.90625 L 0.375 -11.84375 L 2.140625 -11.84375 L 5.75 -6.203125 L 9.34375 -11.84375 L 11.109375 -11.84375 Z M 6.53125 -4.90625 "/></g></g></g><g fill="#061599" fill-opacity="1"><g transform="translate(343.772039, 301.625105)"><g/></g></g><g fill="#061599" fill-opacity="1"><g transform="translate(349.86363, 301.625105)"><g><path d="M 0.765625 -3.90625 L 0.765625 -5.25 L 4.96875 -5.25 L 4.96875 -3.90625 Z M 0.765625 -3.90625 "/></g></g></g></svg>