<svg xmlns="http://www.w3.org/2000/svg" xmlns:xlink="http://www.w3.org/1999/xlink" width="500" zoomAndPan="magnify" viewBox="0 0 375 374.999991" height="500" preserveAspectRatio="xMidYMid meet" version="1.0"><defs><g/><clipPath id="45e0f17c9f"><path d="M 37 72 L 166 72 L 166 145 L 37 145 Z M 37 72 " clip-rule="nonzero"/></clipPath><clipPath id="e046802b81"><path d="M 21.773438 59.902344 L 269.992188 21 L 303.4375 234.394531 L 55.21875 273.296875 Z M 21.773438 59.902344 " clip-rule="nonzero"/></clipPath><clipPath id="5f3466d7c2"><path d="M 21.773438 59.902344 L 269.992188 21 L 303.4375 234.394531 L 55.21875 273.296875 Z M 21.773438 59.902344 " clip-rule="nonzero"/></clipPath><clipPath id="63c91387d5"><path d="M 21.773438 59.902344 L 269.992188 21 L 303.4375 234.394531 L 55.21875 273.296875 Z M 21.773438 59.902344 " clip-rule="nonzero"/></clipPath><clipPath id="5fac4bf304"><path d="M 167 38 L 213 38 L 213 112 L 167 112 Z M 167 38 " clip-rule="nonzero"/></clipPath><clipPath id="cd2b3da5d0"><path d="M 21.773438 59.902344 L 269.992188 21 L 303.4375 234.394531 L 55.21875 273.296875 Z M 21.773438 59.902344 " clip-rule="nonzero"/></clipPath><clipPath id="79f9678f55"><path d="M 21.773438 59.902344 L 269.992188 21 L 303.4375 234.394531 L 55.21875 273.296875 Z M 21.773438 59.902344 " clip-rule="nonzero"/></clipPath><clipPath id="05246f814f"><path d="M 21.773438 59.902344 L 269.992188 21 L 303.4375 234.394531 L 55.21875 273.296875 Z M 21.773438 59.902344 " clip-rule="nonzero"/></clipPath><clipPath id="01c4c4dabf"><path d="M 121 180 L 186 180 L 186 252 L 121 252 Z M 121 180 " clip-rule="nonzero"/></clipPath><clipPath id="4ef2b2a169"><path d="M 21.773438 59.902344 L 269.992188 21 L 303.4375 234.394531 L 55.21875 273.296875 Z M 21.773438 59.902344 " clip-rule="nonzero"/></clipPath><clipPath id="39e66b0c1c"><path d="M 21.773438 59.902344 L 269.992188 21 L 303.4375 234.394531 L 55.21875 273.296875 Z M 21.773438 59.902344 " clip-rule="nonzero"/></clipPath><clipPath id="298b367273"><path d="M 21.773438 59.902344 L 269.992188 21 L 303.4375 234.394531 L 55.21875 273.296875 Z M 21.773438 59.902344 " clip-rule="nonzero"/></clipPath><clipPath id="af8dcf6b49"><path d="M 215 109 L 292 109 L 292 206 L 215 206 Z M 215 109 " clip-rule="nonzero"/></clipPath><clipPath id="b47d75b959"><path d="M 21.773438 59.902344 L 269.992188 21 L 303.4375 234.394531 L 55.21875 273.296875 Z M 21.773438 59.902344 " clip-rule="nonzero"/></clipPath><clipPath id="2affc5485c"><path d="M 21.773438 59.902344 L 269.992188 21 L 303.4375 234.394531 L 55.21875 273.296875 Z M 21.773438 59.902344 " clip-rule="nonzero"/></clipPath><clipPath id="5a6e2bd08e"><path d="M 21.773438 59.902344 L 269.992188 21 L 303.4375 234.394531 L 55.21875 273.296875 Z M 21.773438 59.902344 " clip-rule="nonzero"/></clipPath><clipPath id="929c992a28"><path d="M 157 115 L 269 115 L 269 246 L 157 246 Z M 157 115 " clip-rule="nonzero"/></clipPath><clipPath id="109c4c8226"><path d="M 21.773438 59.902344 L 269.992188 21 L 303.4375 234.394531 L 55.21875 273.296875 Z M 21.773438 59.902344 " clip-rule="nonzero"/></clipPath><clipPath id="55a4baaf04"><path d="M 21.773438 59.902344 L 269.992188 21 L 303.4375 234.394531 L 55.21875 273.296875 Z M 21.773438 59.902344 " clip-rule="nonzero"/></clipPath><clipPath id="61c2e4b991"><path d="M 21.773438 59.902344 L 269.992188 21 L 303.4375 234.394531 L 55.21875 273.296875 Z M 21.773438 59.902344 " clip-rule="nonzero"/></clipPath></defs><rect x="-37.5" width="450" fill="#ffffff" y="-37.499999" height="449.999989" fill-opacity="1"/><rect x="-37.5" width="450" fill="#ffffff" y="-37.499999" height="449.999989" fill-opacity="1"/><rect x="-37.5" width="450" fill="#ffffff" y="-37.499999" height="449.999989" fill-opacity="1"/><g clip-path="url(#45e0f17c9f)"><g clip-path="url(#e046802b81)"><g clip-path="url(#5f3466d7c2)"><g clip-path="url(#63c91387d5)"><path fill="#ffc107" d="M 165.074219 119.976562 C 164.695312 119.707031 163.292969 117.25 162.863281 116.648438 C 118.863281 53.730469 44.746094 67.671875 37.800781 100.164062 C 32.328125 125.070312 80.597656 174.632812 165.074219 119.976562 Z M 165.074219 119.976562 " fill-opacity="1" fill-rule="nonzero"/></g></g></g></g><g clip-path="url(#5fac4bf304)"><g clip-path="url(#cd2b3da5d0)"><g clip-path="url(#79f9678f55)"><g clip-path="url(#05246f814f)"><path fill="#ffc107" d="M 179.121094 111.425781 C 226.8125 80.566406 213.457031 42.25 199.238281 39.128906 C 180.515625 35.042969 152.003906 66.585938 177.820312 109.625 C 178.199219 109.898438 179.070312 111.097656 179.121094 111.425781 Z M 179.121094 111.425781 " fill-opacity="1" fill-rule="nonzero"/></g></g></g></g><g clip-path="url(#01c4c4dabf)"><g clip-path="url(#4ef2b2a169)"><g clip-path="url(#39e66b0c1c)"><g clip-path="url(#298b367273)"><path fill="#ffc107" d="M 139.753906 180.523438 C 132.578125 196.691406 127.734375 212.8125 124.519531 224.34375 C 124.3125 225.046875 124.363281 225.371094 124.140625 226.074219 C 123.167969 230.570312 122.03125 234.09375 121.523438 237.179688 C 120.726562 240.632812 122.976562 244.304688 126.773438 245.03125 C 129.527344 245.617188 133.328125 246.34375 137.847656 247.308594 C 138.535156 247.535156 138.878906 247.480469 139.582031 247.691406 C 151.632812 249.8125 167.96875 251.597656 185.425781 251.871094 C 173.761719 243.683594 163.75 233.207031 155.820312 221.09375 C 147.835938 208.671875 142.328125 194.828125 139.753906 180.523438 Z M 139.753906 180.523438 " fill-opacity="1" fill-rule="nonzero"/></g></g></g></g><g clip-path="url(#af8dcf6b49)"><g clip-path="url(#b47d75b959)"><g clip-path="url(#2affc5485c)"><g clip-path="url(#5a6e2bd08e)"><path fill="#ffc107" d="M 280.316406 140.125 C 269.78125 124.082031 253.738281 113.574219 236.160156 110.3125 C 234.425781 109.929688 232.738281 109.84375 230.777344 110.152344 C 222.28125 111.484375 214.921875 119.992188 215.652344 128.902344 C 216.691406 144.097656 221.984375 158.628906 230.804688 172.285156 C 239.578125 185.617188 250.617188 196.238281 263.5 203.566406 C 266.800781 205.386719 270.875 205.75 274.457031 205.1875 C 281.332031 204.113281 287.296875 199.515625 288.941406 192.910156 C 293.605469 175.785156 290.933594 156.5 280.316406 140.125 Z M 280.316406 140.125 " fill-opacity="1" fill-rule="nonzero"/></g></g></g></g><g clip-path="url(#929c992a28)"><g clip-path="url(#109c4c8226)"><g clip-path="url(#55a4baaf04)"><g clip-path="url(#61c2e4b991)"><path fill="#ffc107" d="M 212.96875 184.425781 C 201.949219 167.4375 195.769531 149.367188 194.539062 130.839844 C 194.035156 125.589844 194.917969 120.4375 196.527344 115.839844 C 196.214844 115.886719 195.59375 116.304688 195.265625 116.355469 C 194.664062 116.785156 193.683594 116.9375 193.082031 117.367188 C 188.382812 119.4375 183.855469 122.488281 179.964844 125.4375 C 177.898438 127.113281 176.140625 128.726562 174.058594 130.390625 C 164.136719 139.632812 157.027344 154.101562 157.867188 168.007812 C 158.84375 182.878906 163.824219 197.472656 172.269531 210.847656 C 180.675781 223.898438 191.601562 233.886719 204.09375 240.9375 C 211.824219 245.40625 224.414062 246.777344 234.558594 245.1875 C 245.660156 243.445312 256.742188 237.367188 265.300781 230.007812 C 265.300781 230.007812 265.628906 229.953125 265.582031 229.644531 C 266.167969 229.222656 266.730469 228.445312 267.332031 228.015625 C 267.59375 227.640625 267.875 227.28125 268.199219 227.230469 C 262.761719 226.726562 257.847656 225.175781 253.464844 222.839844 C 237.363281 214.011719 223.636719 201.121094 212.96875 184.425781 Z M 212.96875 184.425781 " fill-opacity="1" fill-rule="nonzero"/></g></g></g></g><g fill="#423f37" fill-opacity="1"><g transform="translate(147.898122, 316.231558)"><g><path d="M 2.96875 -10.234375 C 3.507812 -9.828125 4.429688 -9.273438 5.734375 -8.578125 C 7.046875 -7.878906 8.289062 -7.539062 9.46875 -7.5625 C 10.65625 -7.582031 11.238281 -8.050781 11.21875 -8.96875 C 11.207031 -9.394531 11.03125 -9.765625 10.6875 -10.078125 C 10.351562 -10.390625 9.738281 -10.742188 8.84375 -11.140625 C 7.945312 -11.546875 7.269531 -11.859375 6.8125 -12.078125 C 6.363281 -12.304688 5.765625 -12.679688 5.015625 -13.203125 C 4.273438 -13.734375 3.707031 -14.285156 3.3125 -14.859375 C 2.164062 -16.429688 1.566406 -18.4375 1.515625 -20.875 C 1.472656 -23.320312 2.34375 -25.40625 4.125 -27.125 C 5.90625 -28.84375 8.269531 -29.734375 11.21875 -29.796875 C 13.21875 -29.828125 15.070312 -29.644531 16.78125 -29.25 C 18.488281 -28.863281 19.375 -28.320312 19.4375 -27.625 C 19.445312 -27.539062 19.453125 -27.457031 19.453125 -27.375 C 19.460938 -26.394531 19.175781 -25.15625 18.59375 -23.65625 C 18.019531 -22.15625 17.609375 -21.320312 17.359375 -21.15625 C 15.566406 -22.039062 13.96875 -22.46875 12.5625 -22.4375 C 11.164062 -22.40625 10.472656 -21.890625 10.484375 -20.890625 C 10.503906 -20.273438 11.023438 -19.742188 12.046875 -19.296875 C 12.285156 -19.191406 12.613281 -19.046875 13.03125 -18.859375 C 13.445312 -18.671875 13.925781 -18.445312 14.46875 -18.1875 C 15.019531 -17.9375 15.613281 -17.617188 16.25 -17.234375 C 16.882812 -16.847656 17.566406 -16.328125 18.296875 -15.671875 C 19.804688 -14.304688 20.582031 -12.484375 20.625 -10.203125 C 20.675781 -7.234375 19.898438 -4.785156 18.296875 -2.859375 C 16.691406 -0.941406 14.1875 0.0820312 10.78125 0.21875 C 9.101562 0.25 7.585938 0.140625 6.234375 -0.109375 C 4.878906 -0.367188 3.691406 -0.890625 2.671875 -1.671875 C 1.660156 -2.453125 1.140625 -3.410156 1.109375 -4.546875 C 1.085938 -5.691406 1.273438 -6.832031 1.671875 -7.96875 C 2.066406 -9.113281 2.5 -9.867188 2.96875 -10.234375 Z M 2.96875 -10.234375 "/></g></g></g><g fill="#423f37" fill-opacity="1"><g transform="translate(174.745078, 315.713243)"><g><path d="M 1.625 -2.484375 L 1.125 -28.4375 C 1.113281 -29.019531 2.519531 -29.335938 5.34375 -29.390625 C 8.164062 -29.453125 9.582031 -29.191406 9.59375 -28.609375 L 9.984375 -8.171875 L 16.40625 -8.28125 C 16.90625 -8.289062 17.265625 -7.644531 17.484375 -6.34375 C 17.578125 -5.707031 17.628906 -5.054688 17.640625 -4.390625 C 17.648438 -3.722656 17.625 -3.039062 17.5625 -2.34375 C 17.363281 -1 17.015625 -0.320312 16.515625 -0.3125 L 3.671875 -0.078125 C 3.054688 -0.0546875 2.5625 -0.289062 2.1875 -0.78125 C 1.820312 -1.28125 1.632812 -1.847656 1.625 -2.484375 Z M 1.625 -2.484375 "/></g></g></g><g fill="#423f37" fill-opacity="1"><g transform="translate(197.590157, 315.27219)"><g><path d="M 4.703125 -7.265625 L 4.421875 -22.109375 L 1.453125 -22.046875 C 0.984375 -22.035156 0.640625 -22.628906 0.421875 -23.828125 C 0.328125 -24.410156 0.269531 -25.003906 0.25 -25.609375 C 0.238281 -26.222656 0.269531 -26.828125 0.34375 -27.421875 C 0.519531 -28.609375 0.84375 -29.207031 1.3125 -29.21875 L 15.328125 -29.5 C 15.796875 -29.5 16.125 -28.910156 16.3125 -27.734375 C 16.4375 -27.140625 16.503906 -26.535156 16.515625 -25.921875 C 16.535156 -25.316406 16.492188 -24.722656 16.390625 -24.140625 C 16.242188 -22.929688 15.9375 -22.328125 15.46875 -22.328125 L 12.671875 -22.265625 L 12.953125 -7.421875 L 15.875 -7.484375 C 16.34375 -7.492188 16.6875 -6.898438 16.90625 -5.703125 C 17.03125 -5.117188 17.097656 -4.519531 17.109375 -3.90625 C 17.128906 -3.300781 17.085938 -2.707031 16.984375 -2.125 C 16.804688 -0.925781 16.484375 -0.320312 16.015625 -0.3125 L 1.953125 -0.03125 C 1.484375 -0.03125 1.15625 -0.625 0.96875 -1.8125 C 0.84375 -2.394531 0.769531 -2.988281 0.75 -3.59375 C 0.738281 -4.207031 0.785156 -4.804688 0.890625 -5.390625 C 1.035156 -6.597656 1.34375 -7.203125 1.8125 -7.203125 Z M 4.703125 -7.265625 "/></g></g></g><g fill="#423f37" fill-opacity="1"><g transform="translate(220.185107, 314.835965)"><g><path d="M 2.046875 -1.96875 L 1.5625 -26.984375 C 1.539062 -27.679688 1.703125 -28.234375 2.046875 -28.640625 C 2.390625 -29.046875 2.84375 -29.253906 3.40625 -29.265625 L 10.359375 -29.390625 C 14.785156 -29.484375 18.164062 -28.4375 20.5 -26.25 C 22.832031 -24.070312 24.046875 -20.59375 24.140625 -15.8125 C 24.335938 -5.582031 20.070312 -0.382812 11.34375 -0.21875 L 4.21875 -0.078125 C 2.789062 -0.0546875 2.066406 -0.6875 2.046875 -1.96875 Z M 9.6875 -21.453125 L 9.921875 -8.984375 C 9.929688 -8.398438 9.976562 -8.035156 10.0625 -7.890625 C 10.15625 -7.742188 10.410156 -7.675781 10.828125 -7.6875 C 12.359375 -7.707031 13.507812 -8.296875 14.28125 -9.453125 C 15.050781 -10.609375 15.410156 -12.507812 15.359375 -15.15625 C 15.304688 -17.8125 14.859375 -19.535156 14.015625 -20.328125 C 13.179688 -21.117188 11.878906 -21.5 10.109375 -21.46875 Z M 9.6875 -21.453125 "/></g></g></g><g fill="#423f37" fill-opacity="1"><g transform="translate(250.575377, 314.249242)"><g><path d="M 14.5 0.140625 C 10.59375 0.210938 7.382812 -1.003906 4.875 -3.515625 C 2.363281 -6.023438 1.0625 -9.734375 0.96875 -14.640625 C 0.875 -19.554688 2.046875 -23.300781 4.484375 -25.875 C 6.921875 -28.445312 10.101562 -29.769531 14.03125 -29.84375 C 17.96875 -29.914062 21.171875 -28.734375 23.640625 -26.296875 C 26.117188 -23.859375 27.40625 -20.113281 27.5 -15.0625 C 27.59375 -10.019531 26.425781 -6.242188 24 -3.734375 C 21.570312 -1.222656 18.40625 0.0664062 14.5 0.140625 Z M 14.09375 -21.828125 C 12.757812 -21.804688 11.648438 -21.175781 10.765625 -19.9375 C 9.890625 -18.695312 9.472656 -16.972656 9.515625 -14.765625 C 9.554688 -12.554688 10.019531 -10.867188 10.90625 -9.703125 C 11.789062 -8.535156 12.929688 -7.960938 14.328125 -7.984375 C 15.734375 -8.015625 16.863281 -8.632812 17.71875 -9.84375 C 18.570312 -11.0625 18.976562 -12.78125 18.9375 -15 C 18.894531 -17.226562 18.410156 -18.929688 17.484375 -20.109375 C 16.554688 -21.285156 15.425781 -21.859375 14.09375 -21.828125 Z M 14.09375 -21.828125 "/></g></g></g></svg>