<svg xmlns="http://www.w3.org/2000/svg" xmlns:xlink="http://www.w3.org/1999/xlink" width="500" zoomAndPan="magnify" viewBox="0 0 375 374.999991" height="500" preserveAspectRatio="xMidYMid meet" version="1.0"><defs><g/><clipPath id="698089a827"><path d="M 23.875 98.707031 L 152.875 98.707031 L 152.875 260.707031 L 23.875 260.707031 Z M 23.875 98.707031 " clip-rule="nonzero"/></clipPath><clipPath id="b8ab0d538e"><path d="M 296.316406 216.769531 L 331.566406 216.769531 L 331.566406 237.769531 L 296.316406 237.769531 Z M 296.316406 216.769531 " clip-rule="nonzero"/></clipPath></defs><rect x="-37.5" width="450" fill="#ffffff" y="-37.499999" height="449.999989" fill-opacity="1"/><rect x="-37.5" width="450" fill="#ffffff" y="-37.499999" height="449.999989" fill-opacity="1"/><rect x="-37.5" width="450" fill="#ffffff" y="-37.499999" height="449.999989" fill-opacity="1"/><g clip-path="url(#698089a827)"><path fill="#e83338" d="M 23.875 116.335938 L 23.875 196.734375 C 30.007812 181.230469 39.40625 168.421875 51.15625 157.570312 C 51.957031 156.824219 52.761719 156.078125 53.5625 155.386719 C 69.09375 141.664062 90.640625 131.898438 87.257812 107.09375 C 101.871094 120.128906 97.34375 136.09375 87.316406 149.644531 C 86.800781 150.335938 86.285156 151.082031 85.769531 151.769531 C 84.394531 153.722656 83.074219 155.617188 81.757812 157.570312 C 79.40625 161.1875 77.230469 164.863281 75.28125 168.597656 C 66.34375 185.59375 59.234375 208.164062 81.070312 219.304688 C 96.542969 227.171875 114.652344 216.144531 115.511719 199.148438 C 116.027344 189.328125 110.925781 180.941406 100.667969 173.707031 C 132.132812 174.167969 143.648438 207.242188 124.625 229.582031 C 120.441406 234.464844 115.398438 238.140625 109.667969 240.664062 C 67.375 259.386719 31.785156 214.9375 59.234375 170.144531 C 19.980469 200.753906 43.589844 260.707031 95.453125 260.707031 C 127.144531 260.707031 152.875 236.128906 152.875 205.867188 C 152.875 183.585938 139.007812 164.460938 119.066406 155.847656 C 130.410156 151.769531 138.550781 140.859375 138.550781 128.167969 C 138.550781 111.972656 125.3125 98.707031 109.152344 98.707031 L 38.835938 98.707031 C 26.054688 98.707031 23.875 105.65625 23.875 116.335938 Z M 23.875 116.335938 " fill-opacity="1" fill-rule="evenodd"/></g><g clip-path="url(#b8ab0d538e)"><path fill="#e83338" d="M 330.816406 226.539062 L 323.519531 226.539062 L 320.625 222.113281 C 320.457031 221.859375 320.21875 221.746094 319.914062 221.78125 C 319.609375 221.8125 319.402344 221.972656 319.292969 222.257812 L 314.648438 234.484375 L 310.453125 217.398438 C 310.414062 217.242188 310.335938 217.113281 310.210938 217.007812 C 310.089844 216.902344 309.949219 216.84375 309.789062 216.832031 C 309.628906 216.816406 309.480469 216.851562 309.34375 216.929688 C 309.203125 217.011719 309.101562 217.125 309.039062 217.273438 L 305.019531 226.355469 L 297.066406 226.355469 C 296.859375 226.355469 296.683594 226.429688 296.539062 226.578125 C 296.390625 226.722656 296.316406 226.898438 296.316406 227.105469 C 296.316406 227.3125 296.390625 227.488281 296.539062 227.636719 C 296.683594 227.78125 296.859375 227.855469 297.066406 227.855469 L 305.503906 227.855469 C 305.832031 227.855469 306.058594 227.707031 306.191406 227.410156 L 309.519531 219.890625 L 313.765625 237.179688 C 313.804688 237.339844 313.886719 237.472656 314.011719 237.578125 C 314.136719 237.683594 314.285156 237.742188 314.445312 237.75 C 314.460938 237.75 314.476562 237.75 314.492188 237.75 C 314.839844 237.75 315.070312 237.589844 315.195312 237.265625 L 320.175781 224.164062 L 322.488281 227.699219 C 322.632812 227.925781 322.84375 228.039062 323.113281 228.039062 L 330.816406 228.039062 C 331.023438 228.039062 331.203125 227.964844 331.347656 227.820312 C 331.496094 227.671875 331.566406 227.496094 331.566406 227.289062 C 331.566406 227.082031 331.496094 226.90625 331.347656 226.757812 C 331.203125 226.613281 331.023438 226.539062 330.816406 226.539062 Z M 330.816406 226.539062 " fill-opacity="1" fill-rule="nonzero"/></g><g fill="#1a1a1a" fill-opacity="1"><g transform="translate(165.307537, 201.220176)"><g><path d="M 10.523438 0.449219 C 15.851562 0.449219 19.125 -2.085938 19.125 -6.320312 C 19.125 -9.882812 16.78125 -12 11.199219 -13.316406 C 7.765625 -14.117188 6.578125 -14.984375 6.578125 -16.363281 C 6.578125 -17.839844 7.894531 -18.738281 10.042969 -18.738281 C 12.386719 -18.738281 13.796875 -17.519531 13.796875 -15.496094 L 18.707031 -15.496094 C 18.707031 -20.023438 15.304688 -22.910156 9.980469 -22.910156 C 4.8125 -22.910156 1.605469 -20.375 1.605469 -16.265625 C 1.605469 -12.609375 4.074219 -10.429688 9.335938 -9.304688 C 12.511719 -8.632812 13.957031 -7.699219 13.957031 -6.128906 C 13.957031 -4.621094 12.609375 -3.753906 10.492188 -3.753906 C 8.019531 -3.753906 6.417969 -5.003906 6.417969 -7.15625 L 1.410156 -7.15625 C 1.410156 -2.503906 4.878906 0.449219 10.523438 0.449219 Z M 10.523438 0.449219 "/></g></g></g><g fill="#1a1a1a" fill-opacity="1"><g transform="translate(186.989945, 201.220176)"><g><path d="M 2.4375 0 L 7.316406 0 L 7.316406 -9.113281 C 7.316406 -11.550781 8.664062 -13.125 10.75 -13.125 C 12.769531 -13.125 14.023438 -11.613281 14.023438 -9.242188 L 14.023438 0 L 18.835938 0 L 18.835938 -9.113281 C 18.835938 -11.550781 20.183594 -13.125 22.265625 -13.125 C 24.289062 -13.125 25.539062 -11.613281 25.539062 -9.242188 L 25.539062 0 L 30.417969 0 L 30.417969 -9.816406 C 30.417969 -14.4375 27.65625 -17.292969 23.359375 -17.292969 C 20.792969 -17.292969 18.675781 -16.300781 17.292969 -14.535156 C 16.105469 -16.332031 14.148438 -17.292969 11.742188 -17.292969 C 9.59375 -17.292969 7.765625 -16.554688 6.546875 -15.113281 L 6.0625 -16.84375 L 2.4375 -16.84375 Z M 2.4375 0 "/></g></g></g><g fill="#1a1a1a" fill-opacity="1"><g transform="translate(220.635827, 201.220176)"><g><path d="M 8.054688 0.320312 C 10.554688 0.320312 12.609375 -0.480469 14.054688 -1.957031 L 14.597656 0 L 18.226562 0 L 18.226562 -10.140625 C 18.226562 -14.597656 15.207031 -17.292969 10.171875 -17.292969 C 5.871094 -17.292969 3.046875 -15.242188 2.4375 -11.582031 L 7.125 -11.582031 C 7.410156 -12.769531 8.632812 -13.574219 10.203125 -13.574219 C 12.128906 -13.574219 13.445312 -12.480469 13.445312 -10.8125 L 13.445312 -10.042969 L 7.347656 -10.042969 C 3.851562 -10.042969 1.605469 -8.019531 1.605469 -4.910156 C 1.605469 -1.667969 4.074219 0.320312 8.054688 0.320312 Z M 6.417969 -5.101562 C 6.417969 -6.257812 7.378906 -6.996094 8.855469 -6.996094 L 13.476562 -6.996094 C 13.378906 -4.714844 11.613281 -3.175781 9.175781 -3.175781 C 7.507812 -3.175781 6.417969 -3.945312 6.417969 -5.101562 Z M 6.417969 -5.101562 "/></g></g></g><g fill="#1a1a1a" fill-opacity="1"><g transform="translate(242.093721, 201.220176)"><g><path d="M 2.4375 0 L 7.316406 0 L 7.316406 -7.445312 C 7.316406 -11.070312 9.015625 -12.417969 11.808594 -12.417969 L 13.667969 -12.417969 L 13.667969 -16.84375 L 11.839844 -16.84375 C 9.367188 -16.84375 7.796875 -16.171875 6.707031 -14.597656 L 6.0625 -16.84375 L 2.4375 -16.84375 Z M 2.4375 0 "/></g></g></g><g fill="#1a1a1a" fill-opacity="1"><g transform="translate(257.970783, 201.220176)"><g><path d="M 10.554688 0 L 13.636719 0 L 13.636719 -4.234375 L 11.613281 -4.234375 C 9.691406 -4.234375 8.792969 -5.164062 8.792969 -7.125 L 8.792969 -12.867188 L 13.410156 -12.867188 L 13.410156 -16.84375 L 8.792969 -16.84375 L 8.792969 -21.207031 L 5.003906 -21.207031 L 4.714844 -19.027344 C 4.460938 -17.292969 3.980469 -16.84375 2.148438 -16.84375 L 0.640625 -16.84375 L 0.640625 -12.867188 L 3.914062 -12.867188 L 3.914062 -6.386719 C 3.914062 -2.277344 6.289062 0 10.554688 0 Z M 10.554688 0 "/></g></g></g><g fill="#1a1a1a" fill-opacity="1"><g transform="translate(274.072364, 201.220176)"><g/></g></g><g fill="#1a1a1a" fill-opacity="1"><g transform="translate(282.732868, 201.220176)"><g><path d="M 2.695312 0 L 13.25 0 C 17.808594 0 20.886719 -2.503906 20.886719 -6.289062 C 20.886719 -8.695312 19.636719 -10.621094 17.519531 -11.550781 C 19.21875 -12.546875 20.214844 -14.308594 20.214844 -16.429688 C 20.214844 -20.117188 17.292969 -22.460938 12.738281 -22.460938 L 2.695312 -22.460938 Z M 7.734375 -4.042969 L 7.734375 -9.433594 L 12.480469 -9.433594 C 14.503906 -9.433594 15.65625 -8.4375 15.65625 -6.738281 C 15.65625 -5.039062 14.503906 -4.042969 12.480469 -4.042969 Z M 7.734375 -13.316406 L 7.734375 -18.417969 L 11.96875 -18.417969 C 13.925781 -18.417969 15.015625 -17.519531 15.015625 -15.882812 C 15.015625 -14.246094 13.925781 -13.316406 11.96875 -13.316406 Z M 7.734375 -13.316406 "/></g></g></g><g fill="#1a1a1a" fill-opacity="1"><g transform="translate(305.954816, 201.220176)"><g><path d="M 2.695312 0 L 7.765625 0 L 7.765625 -13.539062 L 13.21875 -5.550781 L 16.75 -5.550781 L 22.203125 -13.507812 L 22.203125 0 L 27.273438 0 L 27.273438 -22.460938 L 22.972656 -22.460938 L 15.015625 -10.8125 L 7.027344 -22.460938 L 2.695312 -22.460938 Z M 2.695312 0 "/></g></g></g><g fill="#1a1a1a" fill-opacity="1"><g transform="translate(337.034801, 201.220176)"><g><path d="M 2.695312 0 L 7.796875 0 L 7.796875 -22.460938 L 2.695312 -22.460938 Z M 2.695312 0 "/></g></g></g><g fill="#1a1a1a" fill-opacity="1"><g transform="translate(165.307537, 235.821635)"><g><path d="M 10.554688 0 L 13.636719 0 L 13.636719 -4.234375 L 11.613281 -4.234375 C 9.691406 -4.234375 8.792969 -5.164062 8.792969 -7.125 L 8.792969 -12.867188 L 13.410156 -12.867188 L 13.410156 -16.84375 L 8.792969 -16.84375 L 8.792969 -21.207031 L 5.003906 -21.207031 L 4.714844 -19.027344 C 4.460938 -17.292969 3.980469 -16.84375 2.148438 -16.84375 L 0.640625 -16.84375 L 0.640625 -12.867188 L 3.914062 -12.867188 L 3.914062 -6.386719 C 3.914062 -2.277344 6.289062 0 10.554688 0 Z M 10.554688 0 "/></g></g></g><g fill="#1a1a1a" fill-opacity="1"><g transform="translate(181.409121, 235.821635)"><g><path d="M 2.4375 0 L 7.316406 0 L 7.316406 -7.445312 C 7.316406 -11.070312 9.015625 -12.417969 11.808594 -12.417969 L 13.667969 -12.417969 L 13.667969 -16.84375 L 11.839844 -16.84375 C 9.367188 -16.84375 7.796875 -16.171875 6.707031 -14.597656 L 6.0625 -16.84375 L 2.4375 -16.84375 Z M 2.4375 0 "/></g></g></g><g fill="#1a1a1a" fill-opacity="1"><g transform="translate(197.286187, 235.821635)"><g><path d="M 8.054688 0.320312 C 10.554688 0.320312 12.609375 -0.480469 14.054688 -1.957031 L 14.597656 0 L 18.226562 0 L 18.226562 -10.140625 C 18.226562 -14.597656 15.207031 -17.292969 10.171875 -17.292969 C 5.871094 -17.292969 3.046875 -15.242188 2.4375 -11.582031 L 7.125 -11.582031 C 7.410156 -12.769531 8.632812 -13.574219 10.203125 -13.574219 C 12.128906 -13.574219 13.445312 -12.480469 13.445312 -10.8125 L 13.445312 -10.042969 L 7.347656 -10.042969 C 3.851562 -10.042969 1.605469 -8.019531 1.605469 -4.910156 C 1.605469 -1.667969 4.074219 0.320312 8.054688 0.320312 Z M 6.417969 -5.101562 C 6.417969 -6.257812 7.378906 -6.996094 8.855469 -6.996094 L 13.476562 -6.996094 C 13.378906 -4.714844 11.613281 -3.175781 9.175781 -3.175781 C 7.507812 -3.175781 6.417969 -3.945312 6.417969 -5.101562 Z M 6.417969 -5.101562 "/></g></g></g><g fill="#1a1a1a" fill-opacity="1"><g transform="translate(218.744078, 235.821635)"><g><path d="M 10.460938 0.449219 C 15.207031 0.449219 18.769531 -2.34375 19.667969 -6.769531 L 14.917969 -6.769531 C 14.246094 -4.941406 12.578125 -3.753906 10.523438 -3.753906 C 7.894531 -3.753906 6.0625 -5.679688 6.0625 -8.4375 C 6.0625 -11.199219 7.894531 -13.125 10.523438 -13.125 C 12.449219 -13.125 14.023438 -12.097656 14.824219 -10.394531 L 19.507812 -10.394531 C 18.738281 -14.566406 15.144531 -17.292969 10.460938 -17.292969 C 5.070312 -17.292969 1.25 -13.605469 1.25 -8.4375 C 1.25 -3.242188 5.039062 0.449219 10.460938 0.449219 Z M 10.460938 0.449219 "/></g></g></g><g fill="#1a1a1a" fill-opacity="1"><g transform="translate(240.715146, 235.821635)"><g><path d="M 2.4375 0 L 7.316406 0 L 7.316406 -6.417969 L 9.945312 -6.417969 L 13.667969 0 L 19.347656 0 L 14.503906 -8.054688 C 15.402344 -8.855469 16.105469 -9.980469 16.652344 -11.488281 L 18.609375 -16.84375 L 13.347656 -16.84375 L 12.160156 -13.1875 C 11.519531 -11.292969 10.621094 -10.78125 8.566406 -10.78125 L 7.316406 -10.78125 L 7.316406 -23.742188 L 2.4375 -23.742188 Z M 2.4375 0 "/></g></g></g><g fill="#1a1a1a" fill-opacity="1"><g transform="translate(262.012656, 235.821635)"><g><path d="M 10.394531 0.449219 C 14.535156 0.449219 17.808594 -1.667969 19.285156 -5.230469 L 14.34375 -5.230469 C 13.539062 -4.105469 12.097656 -3.464844 10.492188 -3.464844 C 8.277344 -3.464844 6.546875 -4.714844 6.097656 -7.027344 L 19.605469 -7.027344 C 19.894531 -13.1875 16.234375 -17.292969 10.460938 -17.292969 C 5.003906 -17.292969 1.25 -13.667969 1.25 -8.4375 C 1.25 -3.175781 4.972656 0.449219 10.394531 0.449219 Z M 6.128906 -10.105469 C 6.675781 -12.160156 8.34375 -13.410156 10.492188 -13.410156 C 12.738281 -13.410156 14.34375 -12.160156 14.886719 -10.105469 Z M 6.128906 -10.105469 "/></g></g></g><g fill="#1a1a1a" fill-opacity="1"><g transform="translate(283.951644, 235.821635)"><g><path d="M 2.4375 0 L 7.316406 0 L 7.316406 -7.445312 C 7.316406 -11.070312 9.015625 -12.417969 11.808594 -12.417969 L 13.667969 -12.417969 L 13.667969 -16.84375 L 11.839844 -16.84375 C 9.367188 -16.84375 7.796875 -16.171875 6.707031 -14.597656 L 6.0625 -16.84375 L 2.4375 -16.84375 Z M 2.4375 0 "/></g></g></g></svg>