<svg xmlns="http://www.w3.org/2000/svg" xmlns:xlink="http://www.w3.org/1999/xlink" width="500" zoomAndPan="magnify" viewBox="0 0 375 374.999991" height="500" preserveAspectRatio="xMidYMid meet" version="1.0"><defs><g/><clipPath id="f5aa13908f"><path d="M 11.988281 115.085938 L 146.238281 115.085938 L 146.238281 224.585938 L 11.988281 224.585938 Z M 11.988281 115.085938 " clip-rule="nonzero"/></clipPath></defs><rect x="-37.5" width="450" fill="#ffffff" y="-37.499999" height="449.999989" fill-opacity="1"/><rect x="-37.5" width="450" fill="#ffffff" y="-37.499999" height="449.999989" fill-opacity="1"/><rect x="-37.5" width="450" fill="#ffffff" y="-37.499999" height="449.999989" fill-opacity="1"/><g clip-path="url(#f5aa13908f)"><path fill="#d71920" d="M 77.742188 224.457031 L 24.089844 197.269531 L 24.089844 221.175781 L 11.988281 221.175781 L 11.988281 177.5625 L 77.6875 210.863281 L 104.914062 196.839844 L 104.914062 180.160156 L 77.515625 190.984375 L 11.988281 159.996094 L 11.988281 115.210938 L 77.773438 147.429688 L 146.238281 115.414062 L 146.238281 221.6875 L 134.136719 221.6875 L 134.136719 134.40625 L 77.660156 160.851562 L 24.089844 134.605469 L 24.089844 152.34375 L 77.945312 177.789062 L 117.015625 162.394531 L 117.015625 204.207031 Z M 77.742188 224.457031 " fill-opacity="1" fill-rule="nonzero"/></g><g fill="#545454" fill-opacity="1"><g transform="translate(154.52674, 171.8983)"><g><path d="M 11.828125 0.53125 C 9.703125 0.53125 7.640625 0.269531 5.640625 -0.25 C 3.648438 -0.78125 2.03125 -1.484375 0.78125 -2.359375 L 3.21875 -7.8125 C 4.382812 -7.039062 5.738281 -6.414062 7.28125 -5.9375 C 8.832031 -5.46875 10.359375 -5.234375 11.859375 -5.234375 C 14.703125 -5.234375 16.125 -5.945312 16.125 -7.375 C 16.125 -8.113281 15.71875 -8.664062 14.90625 -9.03125 C 14.09375 -9.394531 12.789062 -9.773438 11 -10.171875 C 9.03125 -10.597656 7.382812 -11.050781 6.0625 -11.53125 C 4.738281 -12.019531 3.601562 -12.800781 2.65625 -13.875 C 1.707031 -14.945312 1.234375 -16.394531 1.234375 -18.21875 C 1.234375 -19.8125 1.671875 -21.25 2.546875 -22.53125 C 3.421875 -23.820312 4.722656 -24.835938 6.453125 -25.578125 C 8.179688 -26.328125 10.304688 -26.703125 12.828125 -26.703125 C 14.546875 -26.703125 16.238281 -26.507812 17.90625 -26.125 C 19.582031 -25.738281 21.054688 -25.171875 22.328125 -24.421875 L 20.046875 -18.921875 C 17.554688 -20.273438 15.140625 -20.953125 12.796875 -20.953125 C 11.328125 -20.953125 10.253906 -20.734375 9.578125 -20.296875 C 8.898438 -19.859375 8.5625 -19.289062 8.5625 -18.59375 C 8.5625 -17.894531 8.957031 -17.367188 9.75 -17.015625 C 10.550781 -16.671875 11.835938 -16.3125 13.609375 -15.9375 C 15.609375 -15.507812 17.257812 -15.050781 18.5625 -14.5625 C 19.875 -14.082031 21.007812 -13.3125 21.96875 -12.25 C 22.9375 -11.1875 23.421875 -9.75 23.421875 -7.9375 C 23.421875 -6.363281 22.984375 -4.941406 22.109375 -3.671875 C 21.234375 -2.398438 19.921875 -1.378906 18.171875 -0.609375 C 16.429688 0.148438 14.316406 0.53125 11.828125 0.53125 Z M 11.828125 0.53125 "/></g></g></g><g fill="#545454" fill-opacity="1"><g transform="translate(178.723472, 171.8983)"><g><path d="M 15.828125 0.53125 C 13.054688 0.53125 10.566406 -0.0546875 8.359375 -1.234375 C 6.148438 -2.410156 4.414062 -4.03125 3.15625 -6.09375 C 1.894531 -8.164062 1.265625 -10.5 1.265625 -13.09375 C 1.265625 -15.6875 1.894531 -18.015625 3.15625 -20.078125 C 4.414062 -22.148438 6.148438 -23.769531 8.359375 -24.9375 C 10.566406 -26.113281 13.054688 -26.703125 15.828125 -26.703125 C 18.585938 -26.703125 21.070312 -26.113281 23.28125 -24.9375 C 25.488281 -23.769531 27.222656 -22.148438 28.484375 -20.078125 C 29.742188 -18.015625 30.375 -15.6875 30.375 -13.09375 C 30.375 -10.5 29.742188 -8.164062 28.484375 -6.09375 C 27.222656 -4.03125 25.488281 -2.410156 23.28125 -1.234375 C 21.070312 -0.0546875 18.585938 0.53125 15.828125 0.53125 Z M 15.828125 -5.609375 C 17.148438 -5.609375 18.34375 -5.921875 19.40625 -6.546875 C 20.476562 -7.171875 21.328125 -8.050781 21.953125 -9.1875 C 22.578125 -10.320312 22.890625 -11.625 22.890625 -13.09375 C 22.890625 -14.5625 22.578125 -15.863281 21.953125 -17 C 21.328125 -18.132812 20.476562 -19.015625 19.40625 -19.640625 C 18.34375 -20.265625 17.148438 -20.578125 15.828125 -20.578125 C 14.503906 -20.578125 13.304688 -20.265625 12.234375 -19.640625 C 11.160156 -19.015625 10.3125 -18.132812 9.6875 -17 C 9.0625 -15.863281 8.75 -14.5625 8.75 -13.09375 C 8.75 -11.625 9.0625 -10.320312 9.6875 -9.1875 C 10.3125 -8.050781 11.160156 -7.171875 12.234375 -6.546875 C 13.304688 -5.921875 14.503906 -5.609375 15.828125 -5.609375 Z M 15.828125 -5.609375 "/></g></g></g><g fill="#545454" fill-opacity="1"><g transform="translate(210.362468, 171.8983)"><g><path d="M 10.03125 -20.46875 L 10.03125 -14.703125 L 21.578125 -14.703125 L 21.578125 -8.984375 L 10.03125 -8.984375 L 10.03125 0 L 2.625 0 L 2.625 -26.1875 L 23.15625 -26.1875 L 23.15625 -20.46875 Z M 10.03125 -20.46875 "/></g></g></g><g fill="#545454" fill-opacity="1"><g transform="translate(234.3722, 171.8983)"><g><path d="M 8.1875 -20.3125 L 0.15625 -20.3125 L 0.15625 -26.1875 L 23.609375 -26.1875 L 23.609375 -20.3125 L 15.59375 -20.3125 L 15.59375 0 L 8.1875 0 Z M 8.1875 -20.3125 "/></g></g></g><g fill="#545454" fill-opacity="1"><g transform="translate(258.120151, 171.8983)"><g><path d="M 14.0625 -6.953125 L 10.03125 -6.953125 L 10.03125 0 L 2.625 0 L 2.625 -26.1875 L 14.59375 -26.1875 C 16.957031 -26.1875 19.007812 -25.789062 20.75 -25 C 22.5 -24.21875 23.847656 -23.097656 24.796875 -21.640625 C 25.742188 -20.179688 26.21875 -18.46875 26.21875 -16.5 C 26.21875 -14.601562 25.773438 -12.945312 24.890625 -11.53125 C 24.003906 -10.125 22.738281 -9.023438 21.09375 -8.234375 L 26.75 0 L 18.8125 0 Z M 18.734375 -16.5 C 18.734375 -17.71875 18.347656 -18.660156 17.578125 -19.328125 C 16.804688 -20.003906 15.660156 -20.34375 14.140625 -20.34375 L 10.03125 -20.34375 L 10.03125 -12.6875 L 14.140625 -12.6875 C 15.660156 -12.6875 16.804688 -13.015625 17.578125 -13.671875 C 18.347656 -14.328125 18.734375 -15.269531 18.734375 -16.5 Z M 18.734375 -16.5 "/></g></g></g><g fill="#545454" fill-opacity="1"><g transform="translate(285.794928, 171.8983)"><g><path d="M 20.15625 -5.09375 L 9.09375 -5.09375 L 7.03125 0 L -0.53125 0 L 11.03125 -26.1875 L 18.328125 -26.1875 L 29.921875 0 L 22.21875 0 Z M 18 -10.546875 L 14.625 -18.921875 L 11.265625 -10.546875 Z M 18 -10.546875 "/></g></g></g><g fill="#545454" fill-opacity="1"><g transform="translate(315.190027, 171.8983)"><g><path d="M 8.1875 -20.3125 L 0.15625 -20.3125 L 0.15625 -26.1875 L 23.609375 -26.1875 L 23.609375 -20.3125 L 15.59375 -20.3125 L 15.59375 0 L 8.1875 0 Z M 8.1875 -20.3125 "/></g></g></g><g fill="#545454" fill-opacity="1"><g transform="translate(338.937978, 171.8983)"><g><path d="M 23.640625 -5.71875 L 23.640625 0 L 2.625 0 L 2.625 -26.1875 L 23.15625 -26.1875 L 23.15625 -20.46875 L 9.953125 -20.46875 L 9.953125 -16.046875 L 21.578125 -16.046875 L 21.578125 -10.515625 L 9.953125 -10.515625 L 9.953125 -5.71875 Z M 23.640625 -5.71875 "/></g></g></g><g fill="#d71920" fill-opacity="1"><g transform="translate(180.124567, 208.007228)"><g><path d="M 2.078125 -15.515625 L 4.96875 -15.515625 L 4.96875 0 L 2.078125 0 Z M 2.078125 -15.515625 "/></g></g></g><g fill="#d71920" fill-opacity="1"><g transform="translate(193.844946, 208.007228)"><g><path d="M 15.875 -15.515625 L 15.875 0 L 13.5 0 L 4.9375 -10.515625 L 4.9375 0 L 2.078125 0 L 2.078125 -15.515625 L 4.453125 -15.515625 L 13.015625 -5.015625 L 13.015625 -15.515625 Z M 15.875 -15.515625 "/></g></g></g><g fill="#d71920" fill-opacity="1"><g transform="translate(218.446502, 208.007228)"><g><path d="M 16.28125 -15.515625 L 9.515625 0 L 6.671875 0 L -0.109375 -15.515625 L 3.015625 -15.515625 L 8.1875 -3.546875 L 13.390625 -15.515625 Z M 16.28125 -15.515625 "/></g></g></g><g fill="#d71920" fill-opacity="1"><g transform="translate(241.252992, 208.007228)"><g><path d="M 9.328125 0.21875 C 7.753906 0.21875 6.328125 -0.125 5.046875 -0.8125 C 3.773438 -1.5 2.773438 -2.453125 2.046875 -3.671875 C 1.328125 -4.890625 0.96875 -6.253906 0.96875 -7.765625 C 0.96875 -9.265625 1.328125 -10.625 2.046875 -11.84375 C 2.773438 -13.070312 3.773438 -14.023438 5.046875 -14.703125 C 6.328125 -15.390625 7.753906 -15.734375 9.328125 -15.734375 C 10.910156 -15.734375 12.335938 -15.390625 13.609375 -14.703125 C 14.878906 -14.023438 15.875 -13.078125 16.59375 -11.859375 C 17.320312 -10.648438 17.6875 -9.285156 17.6875 -7.765625 C 17.6875 -6.234375 17.320312 -4.863281 16.59375 -3.65625 C 15.875 -2.445312 14.878906 -1.5 13.609375 -0.8125 C 12.335938 -0.125 10.910156 0.21875 9.328125 0.21875 Z M 9.328125 -2.3125 C 10.367188 -2.3125 11.300781 -2.539062 12.125 -3 C 12.957031 -3.46875 13.609375 -4.117188 14.078125 -4.953125 C 14.546875 -5.785156 14.78125 -6.722656 14.78125 -7.765625 C 14.78125 -8.796875 14.546875 -9.726562 14.078125 -10.5625 C 13.609375 -11.394531 12.957031 -12.046875 12.125 -12.515625 C 11.300781 -12.984375 10.367188 -13.21875 9.328125 -13.21875 C 8.296875 -13.21875 7.363281 -12.984375 6.53125 -12.515625 C 5.707031 -12.046875 5.054688 -11.394531 4.578125 -10.5625 C 4.109375 -9.726562 3.875 -8.796875 3.875 -7.765625 C 3.875 -6.722656 4.109375 -5.785156 4.578125 -4.953125 C 5.054688 -4.117188 5.707031 -3.46875 6.53125 -3 C 7.363281 -2.539062 8.296875 -2.3125 9.328125 -2.3125 Z M 9.328125 -2.3125 "/></g></g></g><g fill="#d71920" fill-opacity="1"><g transform="translate(266.563713, 208.007228)"><g><path d="M 2.078125 -15.515625 L 4.96875 -15.515625 L 4.96875 0 L 2.078125 0 Z M 2.078125 -15.515625 "/></g></g></g><g fill="#d71920" fill-opacity="1"><g transform="translate(280.284095, 208.007228)"><g><path d="M 9.265625 0.21875 C 7.703125 0.21875 6.285156 -0.125 5.015625 -0.8125 C 3.753906 -1.5 2.765625 -2.445312 2.046875 -3.65625 C 1.328125 -4.863281 0.96875 -6.234375 0.96875 -7.765625 C 0.96875 -9.285156 1.328125 -10.648438 2.046875 -11.859375 C 2.773438 -13.078125 3.769531 -14.023438 5.03125 -14.703125 C 6.300781 -15.390625 7.722656 -15.734375 9.296875 -15.734375 C 10.566406 -15.734375 11.722656 -15.507812 12.765625 -15.0625 C 13.816406 -14.625 14.707031 -13.984375 15.4375 -13.140625 L 13.5625 -11.390625 C 12.445312 -12.609375 11.066406 -13.21875 9.421875 -13.21875 C 8.359375 -13.21875 7.40625 -12.984375 6.5625 -12.515625 C 5.71875 -12.046875 5.054688 -11.394531 4.578125 -10.5625 C 4.109375 -9.738281 3.875 -8.804688 3.875 -7.765625 C 3.875 -6.710938 4.109375 -5.769531 4.578125 -4.9375 C 5.054688 -4.113281 5.71875 -3.46875 6.5625 -3 C 7.40625 -2.539062 8.359375 -2.3125 9.421875 -2.3125 C 11.066406 -2.3125 12.445312 -2.921875 13.5625 -4.140625 L 15.4375 -2.375 C 14.707031 -1.53125 13.8125 -0.882812 12.75 -0.4375 C 11.695312 0 10.535156 0.21875 9.265625 0.21875 Z M 9.265625 0.21875 "/></g></g></g><g fill="#d71920" fill-opacity="1"><g transform="translate(303.04628, 208.007228)"><g><path d="M 13.71875 -2.421875 L 13.71875 0 L 2.078125 0 L 2.078125 -15.515625 L 13.40625 -15.515625 L 13.40625 -13.109375 L 4.96875 -13.109375 L 4.96875 -9.0625 L 12.453125 -9.0625 L 12.453125 -6.703125 L 4.96875 -6.703125 L 4.96875 -2.421875 Z M 13.71875 -2.421875 "/></g></g></g><g fill="#d71920" fill-opacity="1"><g transform="translate(324.545267, 208.007228)"><g><path d="M 6.890625 0.21875 C 5.691406 0.21875 4.535156 0.0507812 3.421875 -0.28125 C 2.304688 -0.625 1.425781 -1.078125 0.78125 -1.640625 L 1.78125 -3.875 C 2.414062 -3.375 3.191406 -2.960938 4.109375 -2.640625 C 5.035156 -2.328125 5.960938 -2.171875 6.890625 -2.171875 C 8.046875 -2.171875 8.90625 -2.351562 9.46875 -2.71875 C 10.039062 -3.09375 10.328125 -3.582031 10.328125 -4.1875 C 10.328125 -4.632812 10.164062 -5 9.84375 -5.28125 C 9.53125 -5.570312 9.128906 -5.796875 8.640625 -5.953125 C 8.160156 -6.117188 7.5 -6.304688 6.65625 -6.515625 C 5.46875 -6.796875 4.507812 -7.078125 3.78125 -7.359375 C 3.050781 -7.640625 2.421875 -8.078125 1.890625 -8.671875 C 1.367188 -9.273438 1.109375 -10.085938 1.109375 -11.109375 C 1.109375 -11.960938 1.335938 -12.738281 1.796875 -13.4375 C 2.265625 -14.144531 2.96875 -14.703125 3.90625 -15.109375 C 4.851562 -15.523438 6.003906 -15.734375 7.359375 -15.734375 C 8.304688 -15.734375 9.238281 -15.613281 10.15625 -15.375 C 11.070312 -15.144531 11.863281 -14.8125 12.53125 -14.375 L 11.625 -12.125 C 10.9375 -12.53125 10.222656 -12.832031 9.484375 -13.03125 C 8.742188 -13.238281 8.03125 -13.34375 7.34375 -13.34375 C 6.195312 -13.34375 5.347656 -13.148438 4.796875 -12.765625 C 4.242188 -12.378906 3.96875 -11.867188 3.96875 -11.234375 C 3.96875 -10.796875 4.125 -10.4375 4.4375 -10.15625 C 4.757812 -9.875 5.164062 -9.648438 5.65625 -9.484375 C 6.144531 -9.328125 6.8125 -9.144531 7.65625 -8.9375 C 8.800781 -8.664062 9.742188 -8.382812 10.484375 -8.09375 C 11.222656 -7.8125 11.851562 -7.375 12.375 -6.78125 C 12.90625 -6.1875 13.171875 -5.390625 13.171875 -4.390625 C 13.171875 -3.535156 12.9375 -2.757812 12.46875 -2.0625 C 12 -1.363281 11.289062 -0.804688 10.34375 -0.390625 C 9.40625 0.015625 8.253906 0.21875 6.890625 0.21875 Z M 6.890625 0.21875 "/></g></g></g></svg>